<svg xmlns="http://www.w3.org/2000/svg" viewBox="0 0 128 128" fill="none">
  <defs>
    <linearGradient id="bg" x1="20" y1="16" x2="110" y2="118" gradientUnits="userSpaceOnUse">
      <stop stop-color="#1D4ED8" />
      <stop offset="1" stop-color="#0F766E" />
    </linearGradient>
    <linearGradient id="pin" x1="34" y1="26" x2="94" y2="106" gradientUnits="userSpaceOnUse">
      <stop stop-color="#F8FAFC" />
      <stop offset="1" stop-color="#DBEAFE" />
    </linearGradient>
    <linearGradient id="tag" x1="50" y1="46" x2="83" y2="80" gradientUnits="userSpaceOnUse">
      <stop stop-color="#F59E0B" />
      <stop offset="1" stop-color="#F97316" />
    </linearGradient>
  </defs>
  <rect x="10" y="10" width="108" height="108" rx="28" fill="url(#bg)" />
  <circle cx="97" cy="33" r="16" fill="#93C5FD" fill-opacity=".22" />
  <path
    d="M64 22C45.222 22 30 37.222 30 56c0 24.486 26.116 49.537 34 56 7.884-6.463 34-31.514 34-56 0-18.778-15.222-34-34-34Z"
    fill="url(#pin)"
  />
  <path
    d="M51 45a4 4 0 0 0-4 4v14.343a4 4 0 0 0 1.172 2.828l14.657 14.657a4 4 0 0 0 5.656 0l17.858-17.857a4 4 0 0 0 0-5.657L74.657 45.828A4 4 0 0 0 71.828 45H51Z"
    fill="url(#tag)"
  />
  <circle cx="73" cy="55" r="4.5" fill="#F8FAFC" />
  <path
    d="M44 95c4.517 4.999 8.802 9.105 11.265 11.24 4.11-1.69 8.84-2.615 13.735-2.615 4.826 0 9.593.88 14.057 2.55C85.94 103.78 90.044 99.775 94 95H44Z"
    fill="#0F172A"
    fill-opacity=".16"
  />
</svg>
