<svg xmlns="http://www.w3.org/2000/svg" viewBox="0 0 128 128" fill="none">
  <defs>
    <linearGradient id="bgGrad" x1="16" y1="12" x2="112" y2="118" gradientUnits="userSpaceOnUse">
      <stop stop-color="#006565" />
      <stop offset="1" stop-color="#005050" />
    </linearGradient>
    <linearGradient id="lGrad" x1="30" y1="28" x2="64" y2="96" gradientUnits="userSpaceOnUse">
      <stop stop-color="#24F2BF" />
      <stop offset="1" stop-color="#00D9A3" />
    </linearGradient>
  </defs>
  <rect width="128" height="128" rx="30" fill="url(#bgGrad)" />
  <rect x="6" y="6" width="116" height="116" rx="24" stroke="#F4FFFE" stroke-opacity=".08" stroke-width="2" />
  <rect x="30" y="28" width="18" height="68" rx="8" fill="url(#lGrad)" />
  <rect x="30" y="78" width="32" height="18" rx="8" fill="url(#lGrad)" />
  <path
    fill="#F7FFFE"
    fill-rule="evenodd"
    clip-rule="evenodd"
    d="M76 28H83C94.167 28 102.786 30.833 108.857 36.5C115.119 42.167 118 51.333 118 64C118 76.667 115.119 85.833 108.857 91.5C102.786 97.167 94.167 100 83 100H76V28ZM90 44V84C96.524 84 101.548 82.214 105.071 78.643C108.714 74.952 110.5 70.071 110.5 64C110.5 57.929 108.714 53.048 105.071 49.357C101.548 45.786 96.524 44 90 44Z"
  />
</svg>
